<?xml version="1.0" encoding="UTF-8"?>
<!-- Generated by Pixelmator Pro 3.5.6 -->
<svg width="1000" height="1000" viewBox="0 0 1000 1000" xmlns="http://www.w3.org/2000/svg">
    <path id="Color-Fill" fill="#ffffff" stroke="none" d="M 0 0 L 1000 0 L 1000 1000 L 0 1000 Z"/>
    <g id="Logo-Placeholder-Replace-With-Your-Logo-">
        <path id="Rounded-Rectangle" fill="#bb1c16" fill-rule="evenodd" stroke="none" d="M 111 855 C 111 877.09137 128.908615 895 151 895 L 708 895 C 730.09137 895 748 877.09137 748 855 L 748 298 C 748 275.90863 730.09137 258 708 258 L 151 258 C 128.908615 258 111 275.90863 111 298 Z"/>
        <path id="path1" fill="none" stroke="#bb1c16" stroke-width="25" d="M 471 495 C 471 517.091431 488.9086 535 511 535 L 861 535 C 883.091431 535 901 517.091431 901 495 L 901 145 C 901 122.908569 883.091431 105 861 105 L 511 105 C 488.9086 105 471 122.908569 471 145 Z"/>
        <path id="Logo-Shape" fill="#bb1c16" fill-rule="evenodd" stroke="none" visibility="hidden" d="M 803.5 686 C 803.5 502.365326 654.634644 353.5 471 353.5 C 287.365326 353.5 138.5 502.365326 138.5 686 C 138.5 869.634705 287.365326 1018.5 471 1018.5 C 654.634644 1018.5 803.5 869.634705 803.5 686 Z"/>
        <text id="Text" visibility="hidden" xml:space="preserve" x="-690" y="303" font-family="Rubik" font-size="130" fill="#ffffff">TEXT</text>
        <text id="Beyond-The-Idea" xml:space="preserve" x="143" y="718" font-family="Rubik" font-size="402.828125" fill="#ffffff">SW</text>
    </g>
</svg>
